<?xml version="1.0" standalone="no"?><!DOCTYPE svg PUBLIC "-//W3C//DTD SVG 1.1//EN" "http://www.w3.org/Graphics/SVG/1.1/DTD/svg11.dtd"><svg t="1779812366193" class="icon" viewBox="0 0 1024 1024" version="1.1" xmlns="http://www.w3.org/2000/svg" p-id="9987" xmlns:xlink="http://www.w3.org/1999/xlink" width="200" height="200"><path d="M781.085 64H254.258C195.119 64 147 112.119 147 171.258v680.484C147 910.881 195.119 959 254.258 959h371.08L886 657.87V171.258C886 112.119 839.132 64 781.085 64zM254.258 920C216.57 920 186 889.43 186 851.742V171.258C186 133.57 216.57 103 254.258 103h526.827C818.288 103 847 132.934 847 171.258V628H694.281C641.127 628 594 675.066 594 728.438V920H254.258z m572.549-253L633 890.274V728.438C633 696.365 662.427 667 694.281 667h132.526z" p-id="9988" fill="#ffffff"></path><path d="M283.196 317h466.957c10.745 0 19.457-8.755 19.457-19.5s-8.712-19.5-19.457-19.5H283.196c-10.745 0-19.457 8.755-19.457 19.5s8.712 19.5 19.457 19.5zM769.609 472.5c0-10.745-8.712-19.5-19.457-19.5H283.196c-10.745 0-19.457 8.755-19.457 19.5s8.712 19.5 19.457 19.5h466.957c10.744 0 19.456-8.755 19.456-19.5z" p-id="9989" fill="#ffffff"></path></svg>